<svg width="37" height="46" viewBox="0 0 37 46" fill="none" xmlns="http://www.w3.org/2000/svg">
<path d="M18.5 25.0625C22.1244 25.0625 25.0625 22.1244 25.0625 18.5C25.0625 14.8756 22.1244 11.9375 18.5 11.9375C14.8756 11.9375 11.9375 14.8756 11.9375 18.5C11.9375 22.1244 14.8756 25.0625 18.5 25.0625Z" stroke="white" stroke-width="2" stroke-linecap="round" stroke-linejoin="round"/>
<path d="M18.5 1C13.8587 1 9.40752 2.84375 6.12563 6.12563C2.84375 9.40752 1 13.8587 1 18.5C1 22.6387 1.87937 25.3469 4.28125 28.3438L18.5 44.75L32.7188 28.3438C35.1206 25.3469 36 22.6387 36 18.5C36 13.8587 34.1563 9.40752 30.8744 6.12563C27.5925 2.84375 23.1413 1 18.5 1Z" stroke="white" stroke-width="2" stroke-linecap="round" stroke-linejoin="round"/>
</svg>
