<svg width="277" height="87" viewBox="0 0 277 87" fill="none" xmlns="http://www.w3.org/2000/svg">
<path d="M47.2343 43.5V50.0804C47.2343 51.0765 46.4696 51.8764 45.5175 51.8764C44.5653 51.8764 43.8006 51.0765 43.8006 50.0804V43.5C43.8006 42.519 44.5653 41.704 45.5175 41.704C46.4696 41.704 47.2343 42.5039 47.2343 43.5Z" fill="white"/>
<path d="M52.9041 37.6592V55.4533C52.9041 56.4344 52.1395 57.2493 51.1873 57.2493C50.2351 57.2493 49.4705 56.4494 49.4705 55.4533V37.6592C49.4705 36.6631 50.2351 35.8631 51.1873 35.8631C52.1395 35.8631 52.9041 36.6631 52.9041 37.6592Z" fill="white"/>
<path d="M58.5595 29.9016V63.2109C58.5595 64.1919 57.7949 65.0069 56.8427 65.0069C55.8905 65.0069 55.1259 64.207 55.1259 63.2109V29.9016C55.1259 28.9206 55.8905 28.1056 56.8427 28.1056C57.7949 28.1056 58.5595 28.9055 58.5595 29.9016Z" fill="white"/>
<path d="M64.4891 28.1056V65.0069C64.4891 65.988 63.7244 66.803 62.7722 66.803C61.8201 66.803 61.0554 66.0031 61.0554 65.0069V28.1056C61.0554 27.1245 61.8201 26.3095 62.7722 26.3095C63.7244 26.3095 64.4891 27.1094 64.4891 28.1056Z" fill="white"/>
<path d="M70.2022 39.9231V53.6573C70.2022 54.6534 69.4376 55.4533 68.4854 55.4533C67.5332 55.4533 66.7685 54.6534 66.7685 53.6573V39.9231C66.7685 38.9269 67.5332 38.127 68.4854 38.127C69.4376 38.127 70.2022 38.9269 70.2022 39.9231Z" fill="white"/>
<path d="M75.9153 43.8019V49.7181C75.9153 50.7143 75.1507 51.5142 74.1985 51.5142C73.2463 51.5142 72.4817 50.7143 72.4817 49.7181V43.8019C72.4817 42.8057 73.2463 42.0058 74.1985 42.0058C75.1507 42.0058 75.9153 42.8057 75.9153 43.8019Z" fill="white"/>
<path d="M87.0819 54.8647V49.854H92.1314C92.5353 49.854 92.9537 49.7785 93.3288 49.6276C94.7282 49.0843 97.83 47.4693 97.6136 44.0433C97.4117 40.6777 94.4685 39.0175 93.0691 38.3987C91.6697 37.7799 92.2035 38.127 91.7418 38.127H83.9512V54.8647H87.0674H87.0819Z" fill="white"/>
<path d="M87.0386 40.7381V47.3335H90.6886C91.9149 47.3335 93.098 46.7902 93.877 45.8092C94.6561 44.8281 94.5695 44.7074 94.5407 44.0433C94.5118 43.3793 94.3243 42.9718 94.0502 42.5341C93.3288 41.4021 92.0881 40.7381 90.7896 40.7381H87.053H87.0386Z" fill="black"/>
<path d="M105.217 38.2327V54.8647H108.145V49.7785H112.373L115.647 54.8647H119.067L115.316 49.6427C115.316 49.6427 118.619 47.5297 118.562 43.9679C118.504 40.406 115.633 38.278 113.599 38.2327C111.565 38.1874 105.202 38.2327 105.202 38.2327H105.217Z" fill="white"/>
<path d="M108.29 40.7833V47.3335H111.593C112.921 47.3335 114.19 46.6996 114.969 45.5677C115.748 44.4357 115.518 44.5716 115.503 44.0433C115.446 42.3228 114.19 40.8286 113.137 40.7984C112.084 40.7682 108.29 40.7984 108.29 40.7984V40.7833Z" fill="black"/>
<path d="M133.999 55.4382C138.795 55.4382 142.684 51.3704 142.684 46.3525C142.684 41.3346 138.795 37.2668 133.999 37.2668C129.202 37.2668 125.314 41.3346 125.314 46.3525C125.314 51.3704 129.202 55.4382 133.999 55.4382Z" fill="white"/>
<path d="M133.999 52.2839C137.13 52.2839 139.669 49.6283 139.669 46.3525C139.669 43.0767 137.13 40.4211 133.999 40.4211C130.867 40.4211 128.329 43.0767 128.329 46.3525C128.329 49.6283 130.867 52.2839 133.999 52.2839Z" fill="black"/>
<path d="M150.648 38.2629V54.8044H153.648V47.6354H156.707L161.295 54.8044H164.858L159.102 46.1563L164.584 38.2629H161.122H150.648Z" fill="white"/>
<path d="M153.663 38.2478V44.9187H156.895L161.396 38.2629L153.663 38.2478Z" fill="black"/>
<path d="M182.445 40.4664H175.996V54.6685H182.445V40.4664Z" fill="black"/>
<path d="M175.996 40.4664V47.5599C175.996 47.5599 175.635 54.7289 171.466 54.8044C167.296 54.8798 169.475 54.8044 169.475 54.8044L169.504 52.1028L171.336 52.133C171.336 52.133 172.909 51.5293 172.937 47.5599C172.966 43.5906 172.909 38.2478 172.909 38.2478H185.374V54.8345L182.459 54.8044V40.4664H176.01H175.996Z" fill="white"/>
<path d="M194.52 38.2176H197.406V49.7031H198.055L206.177 38.2176H208.789V54.8345H206.221L206.163 43.2887H205.528L197.435 54.5176L194.477 54.4874L194.52 38.2176Z" fill="white"/>
<path d="M221.081 54.8345V40.4815H229.578V54.8345H232.781V38.2176H218.166V54.8345H221.081Z" fill="white"/>
<path d="M161.381 36.98H153.663V38.2478H161.381V36.98Z" fill="black"/>
</svg>
