<svg width="62" height="77" viewBox="0 0 62 77" fill="none" xmlns="http://www.w3.org/2000/svg">
<path d="M7.01188 32.5V44.8937C7.01188 46.7698 5.57095 48.2764 3.77657 48.2764C1.9822 48.2764 0.54126 46.7698 0.54126 44.8937V32.5C0.54126 30.6523 1.9822 29.1173 3.77657 29.1173C5.57095 29.1173 7.01188 30.6239 7.01188 32.5Z" fill="white"/>
<path d="M17.6966 21.4991V55.0133C17.6966 56.861 16.2556 58.396 14.4613 58.396C12.6669 58.396 11.226 56.8894 11.226 55.0133V21.4991C11.226 19.623 12.6669 18.1165 14.4613 18.1165C16.2556 18.1165 17.6966 19.623 17.6966 21.4991Z" fill="white"/>
<path d="M28.354 6.88824V69.6243C28.354 71.4719 26.9131 73.0069 25.1187 73.0069C23.3244 73.0069 21.8834 71.5004 21.8834 69.6243V6.88824C21.8834 5.04055 23.3244 3.50555 25.1187 3.50555C26.9131 3.50555 28.354 5.01213 28.354 6.88824Z" fill="white"/>
<path d="M39.5281 3.50555V73.0069C39.5281 74.8546 38.0872 76.3896 36.2928 76.3896C34.4984 76.3896 33.0575 74.8831 33.0575 73.0069V3.50555C33.0575 1.65786 34.4984 0.122864 36.2928 0.122864C38.0872 0.122864 39.5281 1.62944 39.5281 3.50555Z" fill="white"/>
<path d="M50.2944 25.7631V51.6306C50.2944 53.5068 48.8534 55.0133 47.059 55.0133C45.2647 55.0133 43.8237 53.5068 43.8237 51.6306V25.7631C43.8237 23.8869 45.2647 22.3804 47.059 22.3804C48.8534 22.3804 50.2944 23.8869 50.2944 25.7631Z" fill="white"/>
<path d="M61.0607 33.0685V44.2115C61.0607 46.0876 59.6197 47.5942 57.8253 47.5942C56.031 47.5942 54.59 46.0876 54.59 44.2115V33.0685C54.59 31.1924 56.031 29.6859 57.8253 29.6859C59.6197 29.6859 61.0607 31.1924 61.0607 33.0685Z" fill="white"/>
</svg>
