<svg width="34" height="33" viewBox="0 0 34 33" fill="none" xmlns="http://www.w3.org/2000/svg">
<path d="M16.412 6.84873C19.0076 6.84873 21.4534 8.01286 23.2458 9.83269V9.83806C23.2458 8.96416 23.8269 8.30309 24.6302 8.30309H24.8342C26.1017 8.30309 26.3556 9.51237 26.3556 9.89396L26.3609 23.4755C26.2727 24.3655 27.2693 24.8256 27.8229 24.2537C29.9744 22.0147 32.553 12.7317 26.4831 7.35717C20.8223 2.34055 13.2246 3.16931 9.18509 5.98558C4.89167 8.98673 2.14732 15.6157 4.81305 21.8459C7.7242 28.6383 16.0465 30.6645 20.9997 28.6437C23.5071 27.6193 24.6631 31.0439 22.0569 32.1651C18.1289 33.8602 7.18235 33.6872 2.06976 24.7299C-1.38432 18.6792 -1.20158 8.03543 7.96326 2.52113C14.9681 -1.70005 24.2105 -0.530545 29.7821 5.3546C35.6044 11.5128 35.2676 23.0348 29.5834 27.5139C27.009 29.5509 23.1863 27.5698 23.2139 24.602L23.1852 23.6346C21.3928 25.4307 19.0076 26.4842 16.412 26.4842C11.2771 26.4842 6.7563 21.9093 6.7563 16.7197C6.7563 11.4741 11.2771 6.85088 16.412 6.85088V6.84873ZM22.8707 16.3445C22.6763 12.5425 19.8873 10.253 16.5172 10.253H16.3897C12.5053 10.253 10.3474 13.3487 10.3474 16.8583C10.3474 20.7936 12.9537 23.2788 16.3737 23.2788C20.1912 23.2788 22.6975 20.4528 22.8803 17.1098L22.8707 16.3445Z" fill="white"/>
</svg>
