<svg width="33" height="33" viewBox="0 0 33 33" fill="none" xmlns="http://www.w3.org/2000/svg">
<path d="M2.31 2.31C4.37101e-07 4.642 0 8.371 0 15.84V17.16C0 24.618 4.37101e-07 28.347 2.31 30.69C4.642 33 8.371 33 15.84 33H17.16C24.618 33 28.347 33 30.69 30.69C33 28.358 33 24.629 33 17.16V15.84C33 8.382 33 4.653 30.69 2.31C28.358 4.37101e-07 24.629 0 17.16 0H15.84C8.382 0 4.653 4.37101e-07 2.31 2.31ZM5.566 10.043H9.35C9.471 16.335 12.243 18.997 14.443 19.547V10.043H17.996V15.466C20.163 15.235 22.451 12.76 23.221 10.032H26.763C26.474 11.4441 25.897 12.7814 25.068 13.9605C24.2391 15.1396 23.1759 16.1351 21.945 16.885C23.319 17.5686 24.5323 18.5358 25.505 19.7228C26.4778 20.9097 27.1877 22.2895 27.588 23.771H23.683C22.847 21.164 20.757 19.14 17.996 18.865V23.771H17.556C10.032 23.771 5.742 18.623 5.566 10.043Z" fill="#989797"/>
</svg>
